<svg width="25" height="25" viewBox="0 0 25 25" fill="none" xmlns="http://www.w3.org/2000/svg">
<g id="contact_mail" clip-path="url(#clip0_572_2567)">
<path id="Vector" d="M14.3682 11.3684H21.3682V6.36841H14.3682V11.3684ZM17.8682 10.1184L15.3682 8.36841V7.36841L17.8682 9.11841L20.3682 7.36841V8.36841L17.8682 10.1184ZM2.36816 21.3684C1.81816 21.3684 1.34733 21.1726 0.955664 20.7809C0.563997 20.3892 0.368164 19.9184 0.368164 19.3684V5.36841C0.368164 4.81841 0.563997 4.34757 0.955664 3.95591C1.34733 3.56424 1.81816 3.36841 2.36816 3.36841H22.3682C22.9182 3.36841 23.389 3.56424 23.7807 3.95591C24.1723 4.34757 24.3682 4.81841 24.3682 5.36841V19.3684C24.3682 19.9184 24.1723 20.3892 23.7807 20.7809C23.389 21.1726 22.9182 21.3684 22.3682 21.3684H2.36816ZM16.2682 19.3684H22.3682V5.36841H2.36816V19.3684H2.46816C3.16816 18.1184 4.13483 17.1392 5.36816 16.4309C6.6015 15.7226 7.93483 15.3684 9.36816 15.3684C10.8015 15.3684 12.1348 15.7226 13.3682 16.4309C14.6015 17.1392 15.5682 18.1184 16.2682 19.3684ZM9.36816 14.3684C10.2015 14.3684 10.9098 14.0767 11.4932 13.4934C12.0765 12.9101 12.3682 12.2017 12.3682 11.3684C12.3682 10.5351 12.0765 9.82674 11.4932 9.24341C10.9098 8.66007 10.2015 8.36841 9.36816 8.36841C8.53483 8.36841 7.8265 8.66007 7.24316 9.24341C6.65983 9.82674 6.36816 10.5351 6.36816 11.3684C6.36816 12.2017 6.65983 12.9101 7.24316 13.4934C7.8265 14.0767 8.53483 14.3684 9.36816 14.3684ZM4.91816 19.3684H13.8182C13.2515 18.7351 12.5807 18.2434 11.8057 17.8934C11.0307 17.5434 10.2182 17.3684 9.36816 17.3684C8.51816 17.3684 7.70983 17.5434 6.94316 17.8934C6.1765 18.2434 5.5015 18.7351 4.91816 19.3684ZM9.36816 12.3684C9.08483 12.3684 8.84733 12.2726 8.65566 12.0809C8.464 11.8892 8.36816 11.6517 8.36816 11.3684C8.36816 11.0851 8.464 10.8476 8.65566 10.6559C8.84733 10.4642 9.08483 10.3684 9.36816 10.3684C9.6515 10.3684 9.889 10.4642 10.0807 10.6559C10.2723 10.8476 10.3682 11.0851 10.3682 11.3684C10.3682 11.6517 10.2723 11.8892 10.0807 12.0809C9.889 12.2726 9.6515 12.3684 9.36816 12.3684Z" fill="#4682A9"/>
</g>
<defs>
<clipPath id="clip0_572_2567">
<rect width="24" height="24" fill="white" transform="translate(0.368164 0.368408)"/>
</clipPath>
</defs>
</svg>
