<svg width="25" height="25" viewBox="0 0 25 25" fill="none" xmlns="http://www.w3.org/2000/svg">
<g id="person_search">
<path id="Vector" d="M11.3682 12.3684C10.2682 12.3684 9.3265 11.9767 8.54316 11.1934C7.75983 10.4101 7.36816 9.46841 7.36816 8.36841C7.36816 7.26841 7.75983 6.32674 8.54316 5.54341C9.3265 4.76007 10.2682 4.36841 11.3682 4.36841C12.4682 4.36841 13.4098 4.76007 14.1932 5.54341C14.9765 6.32674 15.3682 7.26841 15.3682 8.36841C15.3682 9.46841 14.9765 10.4101 14.1932 11.1934C13.4098 11.9767 12.4682 12.3684 11.3682 12.3684ZM11.3682 10.3684C11.9182 10.3684 12.389 10.1726 12.7807 9.78091C13.1723 9.38924 13.3682 8.91841 13.3682 8.36841C13.3682 7.81841 13.1723 7.34757 12.7807 6.95591C12.389 6.56424 11.9182 6.36841 11.3682 6.36841C10.8182 6.36841 10.3473 6.56424 9.95566 6.95591C9.564 7.34757 9.36816 7.81841 9.36816 8.36841C9.36816 8.91841 9.564 9.38924 9.95566 9.78091C10.3473 10.1726 10.8182 10.3684 11.3682 10.3684ZM22.4682 23.8684L19.2682 20.6684C18.9182 20.8684 18.5432 21.0351 18.1432 21.1684C17.7432 21.3017 17.3182 21.3684 16.8682 21.3684C15.6182 21.3684 14.5557 20.9309 13.6807 20.0559C12.8057 19.1809 12.3682 18.1184 12.3682 16.8684C12.3682 15.6184 12.8057 14.5559 13.6807 13.6809C14.5557 12.8059 15.6182 12.3684 16.8682 12.3684C18.1182 12.3684 19.1807 12.8059 20.0557 13.6809C20.9307 14.5559 21.3682 15.6184 21.3682 16.8684C21.3682 17.3184 21.3015 17.7434 21.1682 18.1434C21.0348 18.5434 20.8682 18.9184 20.6682 19.2684L23.8682 22.4684L22.4682 23.8684ZM16.8682 19.3684C17.5682 19.3684 18.1598 19.1267 18.6432 18.6434C19.1265 18.1601 19.3682 17.5684 19.3682 16.8684C19.3682 16.1684 19.1265 15.5767 18.6432 15.0934C18.1598 14.6101 17.5682 14.3684 16.8682 14.3684C16.1682 14.3684 15.5765 14.6101 15.0932 15.0934C14.6098 15.5767 14.3682 16.1684 14.3682 16.8684C14.3682 17.5684 14.6098 18.1601 15.0932 18.6434C15.5765 19.1267 16.1682 19.3684 16.8682 19.3684ZM3.36816 20.3684V17.5934C3.36816 17.0267 3.50983 16.5017 3.79316 16.0184C4.0765 15.5351 4.46816 15.1684 4.96816 14.9184C5.81816 14.4851 6.7765 14.1184 7.84316 13.8184C8.90983 13.5184 10.0932 13.3684 11.3932 13.3684C11.1932 13.6684 11.0223 13.9892 10.8807 14.3309C10.739 14.6726 10.6265 15.0267 10.5432 15.3934C9.54316 15.4767 8.6515 15.6476 7.86816 15.9059C7.08483 16.1642 6.4265 16.4351 5.89316 16.7184C5.7265 16.8017 5.59733 16.9226 5.50566 17.0809C5.414 17.2392 5.36816 17.4101 5.36816 17.5934V18.3684H10.5432C10.6265 18.7351 10.739 19.0851 10.8807 19.4184C11.0223 19.7517 11.1932 20.0684 11.3932 20.3684H3.36816Z" fill="#4682A9"/>
</g>
</svg>
