<svg width="100" height="100" viewBox="0 0 100 100" fill="none" xmlns="http://www.w3.org/2000/svg">
<g id="Cart">
<path id="Union" fill-rule="evenodd" clip-rule="evenodd" d="M11.4584 10.7083C11.0442 10.7083 10.7084 11.044 10.7084 11.4583C10.7084 11.8725 11.0442 12.2083 11.4584 12.2083H21.2895L23.2308 19.9735L31.3311 52.3749H30.2084C26.3424 52.3749 23.2084 55.5089 23.2084 59.3749C23.2084 63.2409 26.3424 66.3749 30.2084 66.3749H78.125C78.5393 66.3749 78.875 66.0391 78.875 65.6249C78.875 65.2107 78.5393 64.8749 78.125 64.8749H30.2084C27.1708 64.8749 24.7084 62.4125 24.7084 59.3749C24.7084 56.3374 27.1708 53.8749 30.2084 53.8749H32.2917H78.125C78.4692 53.8749 78.7692 53.6407 78.8526 53.3068L87.186 19.9735C87.242 19.7494 87.1917 19.5121 87.0495 19.33C86.9074 19.148 86.6893 19.0416 86.4584 19.0416H24.544L22.6026 11.2764C22.5192 10.9425 22.2192 10.7083 21.875 10.7083H11.4584ZM32.2917 77.3749C29.5763 77.3749 27.375 79.5762 27.375 82.2916C27.375 85.007 29.5763 87.2083 32.2917 87.2083C35.0071 87.2083 37.2084 85.007 37.2084 82.2916C37.2084 79.5762 35.0071 77.3749 32.2917 77.3749ZM73.9584 77.3749C71.243 77.3749 69.0417 79.5762 69.0417 82.2916C69.0417 85.007 71.243 87.2083 73.9584 87.2083C76.6738 87.2083 78.875 85.007 78.875 82.2916C78.875 79.5762 76.6738 77.3749 73.9584 77.3749Z" fill="black"/>
</g>
</svg>
