<svg width="73" height="34" viewBox="0 0 73 34" fill="none" xmlns="http://www.w3.org/2000/svg">
<rect width="73" height="34" rx="5" fill="#91C8E4"/>
<path d="M5 16.6481H8.57143V26.5H5V16.6481ZM20 26.5H10V16.0831L12.1729 12.8721L12.7764 8.70826C12.8265 8.3735 12.9967 8.06751 13.2562 7.84582C13.5157 7.62413 13.8473 7.50144 14.1907 7.5H14.2857C14.8539 7.50056 15.3986 7.72316 15.8003 8.11895C16.2021 8.51474 16.428 9.05138 16.4286 9.61111V13.8333H22.1429C22.9003 13.8343 23.6265 14.1311 24.1621 14.6588C24.6977 15.1865 24.9991 15.9019 25 16.6481V21.5741C24.9985 22.8801 24.4712 24.1321 23.5339 25.0556C22.5965 25.9791 21.3256 26.4985 20 26.5Z" fill="white"/>
<path d="M38.232 19.832C38.3387 20.3653 38.568 20.7707 38.92 21.048C39.272 21.3253 39.7467 21.464 40.344 21.464C41.1013 21.464 41.656 21.1653 42.008 20.568C42.36 19.9707 42.536 18.952 42.536 17.512C42.28 17.8747 41.9173 18.1573 41.448 18.36C40.9893 18.552 40.488 18.648 39.944 18.648C39.2507 18.648 38.6213 18.5093 38.056 18.232C37.4907 17.944 37.0427 17.5227 36.712 16.968C36.392 16.4027 36.232 15.72 36.232 14.92C36.232 13.7467 36.5733 12.8133 37.256 12.12C37.9493 11.416 38.8987 11.064 40.104 11.064C41.5547 11.064 42.584 11.5493 43.192 12.52C43.8107 13.48 44.12 14.9573 44.12 16.952C44.12 18.328 44.0027 19.4533 43.768 20.328C43.544 21.2027 43.1493 21.864 42.584 22.312C42.0187 22.76 41.2347 22.984 40.232 22.984C39.0907 22.984 38.2107 22.6853 37.592 22.088C36.9733 21.4907 36.6267 20.7387 36.552 19.832H38.232ZM40.264 17.112C40.904 17.112 41.4053 16.9147 41.768 16.52C42.1413 16.1147 42.328 15.5813 42.328 14.92C42.328 14.184 42.1307 13.6133 41.736 13.208C41.352 12.792 40.824 12.584 40.152 12.584C39.48 12.584 38.9467 12.7973 38.552 13.224C38.168 13.64 37.976 14.1893 37.976 14.872C37.976 15.5227 38.1627 16.0613 38.536 16.488C38.92 16.904 39.496 17.112 40.264 17.112ZM47.1243 20.52C48.1483 19.6347 48.9536 18.9093 49.5403 18.344C50.1376 17.768 50.6336 17.1707 51.0283 16.552C51.4229 15.9333 51.6203 15.3147 51.6203 14.696C51.6203 14.056 51.4656 13.5547 51.1563 13.192C50.8576 12.8293 50.3829 12.648 49.7323 12.648C49.1029 12.648 48.6123 12.8507 48.2603 13.256C47.9189 13.6507 47.7376 14.184 47.7163 14.856H45.9563C45.9883 13.64 46.3509 12.712 47.0443 12.072C47.7483 11.4213 48.6389 11.096 49.7163 11.096C50.8789 11.096 51.7856 11.416 52.4363 12.056C53.0976 12.696 53.4283 13.5493 53.4283 14.616C53.4283 15.384 53.2309 16.1253 52.8363 16.84C52.4523 17.544 51.9883 18.1787 51.4443 18.744C50.9109 19.2987 50.2283 19.944 49.3963 20.68L48.6763 21.32H53.7483V22.84H45.9723V21.512L47.1243 20.52ZM55.0626 14.152C55.0626 13.3733 55.2866 12.7653 55.7346 12.328C56.1933 11.88 56.78 11.656 57.4946 11.656C58.2093 11.656 58.7906 11.88 59.2386 12.328C59.6973 12.7653 59.9266 13.3733 59.9266 14.152C59.9266 14.9307 59.6973 15.544 59.2386 15.992C58.7906 16.44 58.2093 16.664 57.4946 16.664C56.78 16.664 56.1933 16.44 55.7346 15.992C55.2866 15.544 55.0626 14.9307 55.0626 14.152ZM64.8226 11.864L58.4386 23H56.6466L63.0306 11.864H64.8226ZM57.4946 12.76C56.8226 12.76 56.4866 13.224 56.4866 14.152C56.4866 15.0907 56.8226 15.56 57.4946 15.56C57.8146 15.56 58.06 15.448 58.2306 15.224C58.412 14.9893 58.5026 14.632 58.5026 14.152C58.5026 13.224 58.1666 12.76 57.4946 12.76ZM61.5746 20.696C61.5746 19.9173 61.7986 19.3093 62.2466 18.872C62.7053 18.424 63.292 18.2 64.0066 18.2C64.7106 18.2 65.2866 18.424 65.7346 18.872C66.1933 19.3093 66.4226 19.9173 66.4226 20.696C66.4226 21.4747 66.1933 22.088 65.7346 22.536C65.2866 22.984 64.7106 23.208 64.0066 23.208C63.292 23.208 62.7053 22.984 62.2466 22.536C61.7986 22.088 61.5746 21.4747 61.5746 20.696ZM63.9906 19.304C63.3186 19.304 62.9826 19.768 62.9826 20.696C62.9826 21.624 63.3186 22.088 63.9906 22.088C64.6626 22.088 64.9986 21.624 64.9986 20.696C64.9986 19.768 64.6626 19.304 63.9906 19.304Z" fill="white"/>
</svg>
